<svg width="24" height="25" viewBox="0 0 24 25" fill="none" xmlns="http://www.w3.org/2000/svg">
<g clip-path="url(#clip0_118_99)">
<path d="M22.08 21.7399C22.1071 21.9805 22.0827 22.2239 22.0088 22.4545C21.935 22.6849 21.8132 22.8971 21.6514 23.0771C21.4892 23.2567 21.2907 23.4002 21.0692 23.4976C20.8476 23.5951 20.6078 23.6447 20.3657 23.6428H3.63429C3.39218 23.6447 3.15244 23.5951 2.93083 23.4976C2.70922 23.4002 2.51078 23.2567 2.34857 23.0771C2.1868 22.8971 2.06498 22.6849 1.99111 22.4545C1.91724 22.2239 1.893 21.9805 1.92 21.7399L3.42857 8.21423H20.5714L22.08 21.7399Z" stroke="black" stroke-width="1.71429" stroke-linecap="round" stroke-linejoin="round"/>
<path d="M7.71429 8.21426V5.64283C7.71429 4.50619 8.16582 3.41609 8.96955 2.61237C9.77327 1.80865 10.8634 1.35712 12 1.35712C13.1366 1.35712 14.2267 1.80865 15.0305 2.61237C15.8342 3.41609 16.2857 4.50619 16.2857 5.64283V8.21426" stroke="black" stroke-width="1.71429" stroke-linecap="round" stroke-linejoin="round"/>
</g>
<defs>
<clipPath id="clip0_118_99">
<rect width="24" height="24" fill="white" transform="translate(0 0.5)"/>
</clipPath>
</defs>
</svg>
